<?xml version="1.0" standalone="no"?>
<svg xmlns:xlink="http://www.w3.org/1999/xlink" id="wave" style="transform:rotate(180deg); transition: 0.3s" viewBox="0 0 1440 150" version="1.1" xmlns="http://www.w3.org/2000/svg"><defs><linearGradient id="sw-gradient-0" x1="0" x2="0" y1="1" y2="0"><stop stop-color="rgba(229, 252, 229, 1)" offset="0%"/><stop stop-color="rgba(229, 252, 229, 1)" offset="100%"/></linearGradient></defs><path style="transform:translate(0, 0px); opacity:1" fill="url(#sw-gradient-0)" d="M0,135L48,125C96,115,192,95,288,82.5C384,70,480,65,576,62.5C672,60,768,60,864,72.5C960,85,1056,110,1152,117.5C1248,125,1344,115,1440,102.5C1536,90,1632,75,1728,60C1824,45,1920,30,2016,25C2112,20,2208,25,2304,37.5C2400,50,2496,70,2592,85C2688,100,2784,110,2880,105C2976,100,3072,80,3168,75C3264,70,3360,80,3456,90C3552,100,3648,110,3744,105C3840,100,3936,80,4032,77.5C4128,75,4224,90,4320,97.5C4416,105,4512,105,4608,92.5C4704,80,4800,55,4896,42.5C4992,30,5088,30,5184,42.5C5280,55,5376,80,5472,77.5C5568,75,5664,45,5760,32.5C5856,20,5952,25,6048,40C6144,55,6240,80,6336,95C6432,110,6528,115,6624,107.5C6720,100,6816,80,6864,70L6912,60L6912,150L6864,150C6816,150,6720,150,6624,150C6528,150,6432,150,6336,150C6240,150,6144,150,6048,150C5952,150,5856,150,5760,150C5664,150,5568,150,5472,150C5376,150,5280,150,5184,150C5088,150,4992,150,4896,150C4800,150,4704,150,4608,150C4512,150,4416,150,4320,150C4224,150,4128,150,4032,150C3936,150,3840,150,3744,150C3648,150,3552,150,3456,150C3360,150,3264,150,3168,150C3072,150,2976,150,2880,150C2784,150,2688,150,2592,150C2496,150,2400,150,2304,150C2208,150,2112,150,2016,150C1920,150,1824,150,1728,150C1632,150,1536,150,1440,150C1344,150,1248,150,1152,150C1056,150,960,150,864,150C768,150,672,150,576,150C480,150,384,150,288,150C192,150,96,150,48,150L0,150Z"/></svg>